<svg id="svg" version="1.1" width="400" height="400" viewBox="0 0 400 400" xmlns="http://www.w3.org/2000/svg"><g id="svgg"><path id="path0" d="M6.846 31.895 C 0.141 32.880,-2.415 41.389,2.656 45.842 C 4.492 47.454,6.382 47.847,12.295 47.847 C 21.883 47.847,26.759 50.119,29.918 56.060 C 32.055 60.078,31.898 47.737,31.898 212.109 C 31.898 344.785,31.952 361.476,32.383 362.697 C 34.880 369.776,44.873 369.818,47.392 362.760 C 47.731 361.808,47.822 357.327,47.833 340.909 L 47.847 320.255 59.792 320.255 L 71.737 320.255 71.833 333.094 C 71.984 353.105,70.390 351.900,96.529 351.765 L 114.035 351.675 115.757 350.721 C 116.973 350.047,117.817 349.259,118.628 348.038 L 119.777 346.308 119.870 333.282 L 119.963 320.255 127.911 320.255 L 135.858 320.255 135.951 333.254 C 136.061 348.474,136.138 348.799,140.191 350.986 L 141.467 351.675 203.177 351.758 C 272.728 351.851,267.147 352.049,269.720 349.401 C 272.024 347.031,272.089 346.561,272.089 332.472 L 272.089 320.244 279.984 320.329 L 287.879 320.415 287.937 332.991 C 288.003 347.410,287.996 347.368,290.596 349.706 C 292.931 351.805,293.477 351.885,304.785 351.773 C 315.714 351.664,316.006 351.612,318.066 349.391 C 321.726 345.445,320.367 338.540,315.515 336.434 C 315.052 336.233,312.346 335.991,309.503 335.897 L 304.332 335.726 304.184 330.303 C 304.102 327.321,304.117 323.844,304.217 322.576 L 304.398 320.273 342.231 320.179 L 380.064 320.085 382.451 319.351 C 390.432 316.897,396.353 311.033,399.091 302.871 L 399.841 300.638 399.937 201.595 C 400.010 127.341,399.941 101.953,399.662 100.161 C 398.192 90.708,390.655 82.680,381.277 80.578 C 379.181 80.109,364.579 80.064,213.443 80.064 L 47.905 80.064 47.763 69.458 C 47.637 59.999,47.549 58.576,46.953 56.300 C 42.437 39.063,26.025 29.077,6.846 31.895 M379.585 96.767 C 381.148 97.599,382.397 98.826,383.203 100.319 L 383.892 101.595 383.892 200.009 L 383.892 298.422 383.077 300.006 C 382.057 301.988,380.104 303.504,377.988 303.958 C 376.826 304.207,329.641 304.306,212.106 304.306 L 47.847 304.306 47.847 200.158 L 47.847 96.010 213.158 96.091 C 373.757 96.170,378.501 96.189,379.585 96.767 M281.350 120.292 C 214.349 126.237,183.697 208.124,230.413 256.373 C 270.456 297.731,338.948 284.791,361.653 231.579 C 385.159 176.488,340.802 115.017,281.350 120.292 M78.150 128.210 C 70.719 129.717,69.348 139.610,76.077 143.172 L 77.671 144.017 127.911 143.981 C 171.516 143.949,178.297 143.882,179.266 143.472 C 186.284 140.502,185.368 129.842,177.959 128.253 C 176.148 127.864,80.058 127.824,78.150 128.210 M296.555 136.693 C 349.055 143.516,371.368 208.637,333.990 245.944 C 296.221 283.640,231.524 262.207,224.188 209.569 C 218.319 167.456,254.317 131.204,296.555 136.693 M77.726 168.240 C 70.061 170.301,69.690 181.315,77.212 183.549 C 79.692 184.285,176.027 184.317,178.491 183.582 C 186.211 181.278,185.816 169.810,177.959 168.125 C 175.438 167.584,79.757 167.694,77.726 168.240 M252.472 176.582 C 237.404 179.911,229.106 193.770,233.009 209.091 C 237.166 225.409,257.341 232.339,273.525 223.007 C 276.720 221.165,279.992 218.543,284.185 214.463 L 288.179 210.578 292.681 214.966 C 301.965 224.012,308.269 226.956,318.341 226.951 C 333.965 226.942,344.126 216.902,344.163 201.435 C 344.212 181.361,323.797 170.029,304.516 179.429 C 300.668 181.305,296.726 184.291,291.973 188.930 L 288.093 192.717 284.086 188.807 C 273.375 178.355,262.856 174.288,252.472 176.582 M263.421 188.700 C 267.791 190.165,271.580 192.873,277.187 198.540 L 280.212 201.596 276.549 205.286 C 264.603 217.323,253.108 219.101,246.539 209.927 C 238.329 198.461,249.739 184.113,263.421 188.700 M324.568 189.134 C 336.932 195.220,334.029 213.400,320.378 215.373 C 313.799 216.324,308.059 213.568,299.924 205.551 C 295.575 201.266,295.587 201.864,299.779 197.778 C 309.388 188.412,317.416 185.613,324.568 189.134 M76.011 217.078 C 70.291 219.929,70.316 228.291,76.055 231.363 L 77.352 232.057 127.094 232.142 C 182.072 232.236,178.833 232.352,181.351 230.196 C 185.400 226.730,184.917 220.178,180.408 217.396 L 178.838 216.427 128.243 216.345 L 77.649 216.262 76.011 217.078 M77.510 256.438 C 70.175 258.670,69.692 268.796,76.793 271.453 C 79.145 272.333,175.651 272.466,178.590 271.593 C 185.658 269.494,185.935 259.082,178.987 256.632 C 177.468 256.097,79.251 255.909,77.510 256.438 M103.913 327.990 L 103.828 335.726 95.933 335.811 L 88.038 335.896 88.038 328.076 L 88.038 320.255 96.018 320.255 L 103.999 320.255 103.913 327.990 M255.821 328.070 L 255.821 335.885 203.828 335.885 L 151.834 335.885 151.834 328.070 L 151.834 320.255 203.828 320.255 L 255.821 320.255 255.821 328.070 " stroke="none" fill="currentColor" fill-rule="evenodd"></path></g></svg>
