<svg version="1.1" id="Layer_1" xmlns="http://www.w3.org/2000/svg" xmlns:xlink="http://www.w3.org/1999/xlink" x="0px" y="0px"
	 width="100%" viewBox="0 0 1200 1200" enable-background="new 0 0 1200 1200" xml:space="preserve">
<path fill="currentColor" opacity="1.000000" stroke="none" 
	d="
M1.000000,115.460632 
	C6.047256,101.778076 15.720727,96.385841 29.724470,96.886566 
	C45.327755,97.444481 60.933865,96.440918 76.277885,100.930954 
	C115.233940,112.330444 144.197845,149.551239 144.910889,190.172684 
	C145.205551,206.958908 144.959747,223.754608 144.959747,240.999741 
	C147.276764,240.999741 149.224228,240.999741 151.171677,240.999741 
	C476.597198,240.999939 802.022705,240.960541 1127.448242,241.064133 
	C1158.570557,241.074036 1180.973022,255.915970 1194.535767,283.726410 
	C1197.396973,289.593445 1198.403564,296.365082 1200.632324,302.859955 
	C1201.000000,501.354218 1201.000000,699.708435 1201.000000,898.531372 
	C1198.562256,906.130310 1196.960815,913.692688 1193.539062,920.314575 
	C1180.104858,946.312317 1158.510742,960.666443 1129.134399,960.853882 
	C1059.148926,961.300537 989.158630,960.999268 919.170288,961.000122 
	C917.343506,961.000122 915.516785,961.000122 913.345215,961.000122 
	C913.345215,976.834167 913.345215,992.573059 913.345215,1009.004517 
	C921.173218,1009.004517 929.260010,1008.888855 937.342285,1009.030334 
	C951.052368,1009.270264 961.332703,1019.797668 961.209534,1033.283813 
	C961.094238,1045.905396 951.419922,1056.528564 938.743958,1056.837646 
	C921.590881,1057.255981 904.410645,1057.292236 887.259888,1056.830444 
	C874.750366,1056.493896 865.126709,1045.830444 865.046631,1033.005615 
	C864.908203,1010.843506 865.002930,988.679871 864.999878,966.516907 
	C864.999695,964.871338 864.999878,963.225769 864.999878,961.290894 
	C849.054749,961.290894 833.317200,961.290894 817.225159,961.290894 
	C817.153625,962.628357 817.010925,964.063904 817.010010,965.499512 
	C816.995667,987.329224 817.027832,1009.158997 816.990723,1030.988647 
	C816.963257,1047.169556 807.030334,1056.995361 790.743164,1056.996338 
	C672.262817,1057.003174 553.782532,1057.003174 435.302185,1056.996582 
	C418.750641,1056.995605 409.017273,1047.205322 409.004364,1030.553345 
	C408.986572,1007.573730 408.999908,984.594116 408.999908,961.307556 
	C393.088776,961.307556 377.350922,961.307556 361.228760,961.307556 
	C361.158081,962.589233 361.011292,964.020813 361.010315,965.452515 
	C360.995667,987.282227 361.026672,1009.112000 360.991211,1030.941650 
	C360.964874,1047.152832 351.054840,1056.988647 334.790161,1056.996094 
	C304.128571,1057.009888 273.467010,1057.016479 242.805420,1056.993164 
	C226.950378,1056.981079 217.028290,1047.006348 217.007645,1031.056396 
	C216.977676,1007.909851 216.999969,984.763306 216.999969,961.308716 
	C193.090576,961.308716 169.354080,961.308716 145.000183,961.308716 
	C145.000183,962.926819 145.000214,964.685974 145.000198,966.445190 
	C144.999542,1004.438904 145.069016,1042.432861 144.966904,1080.426147 
	C144.919998,1097.870850 129.486496,1109.222290 113.251823,1104.010010 
	C104.254524,1101.121216 97.601669,1092.381714 97.054688,1082.654907 
	C96.942558,1080.661011 97.001503,1078.656738 97.001495,1076.657227 
	C96.999725,783.205933 96.981613,489.754669 97.055412,196.303391 
	C97.058960,182.189392 93.399246,169.685333 83.434715,159.436096 
	C74.561401,150.309280 63.609795,145.562729 50.941929,145.111649 
	C42.453598,144.809387 33.946529,145.073303 25.448967,144.980804 
	C13.664804,144.852570 5.339581,138.676788 1.289278,127.203522 
	C1.000000,123.307091 1.000000,119.614182 1.000000,115.460632 
M1153.000000,516.500000 
	C1153.000000,449.338013 1153.008911,382.175995 1152.993652,315.014008 
	C1152.989990,298.602325 1143.371704,289.007202 1126.897339,289.006744 
	C801.087463,288.997681 475.277618,288.999634 149.467743,289.009613 
	C148.034668,289.009644 146.601608,289.156982 145.288666,289.228973 
	C145.288666,497.328491 145.288666,705.056396 145.288666,913.000061 
	C147.387650,913.000061 149.199509,913.000122 151.011383,913.000122 
	C217.998474,913.000122 284.985565,913.000122 351.972656,913.000122 
	C535.455811,913.000122 718.939026,913.000122 902.422180,913.000122 
	C976.750183,913.000122 1051.078125,913.000732 1125.406128,912.999512 
	C1143.905396,912.999207 1152.999023,903.929810 1152.999146,885.473511 
	C1153.000732,762.815674 1153.000000,640.157837 1153.000000,516.500000 
M710.500000,961.000244 
	C626.075867,961.000244 541.651794,961.000244 457.286255,961.000244 
	C457.286255,977.305298 457.286255,993.043701 457.286255,1008.717224 
	C561.305176,1008.717224 665.038086,1008.717224 768.713745,1008.717224 
	C768.713745,992.694641 768.713745,976.956299 768.713745,961.000244 
	C749.452454,961.000244 730.476196,961.000244 710.500000,961.000244 
M312.999695,1002.423096 
	C312.999695,988.667542 312.999695,974.911926 312.999695,961.316345 
	C296.631866,961.316345 280.893707,961.316345 265.318420,961.316345 
	C265.318420,977.372253 265.318420,993.110474 265.318420,1008.679077 
	C281.375793,1008.679077 297.113403,1008.679077 312.999695,1008.679077 
	C312.999695,1006.706116 312.999695,1005.053101 312.999695,1002.423096 
z"/>
<path fill="currentColor" opacity="1.000000" stroke="none" 
	d="
M687.284302,440.287048 
	C720.853638,403.762421 761.096375,378.751892 809.248718,367.932037 
	C894.420471,348.793976 969.059814,369.885803 1032.292847,429.784668 
	C1071.958374,467.358704 1094.772583,514.135193 1102.699097,568.040955 
	C1107.785767,602.633972 1105.537354,637.038269 1094.520264,670.209167 
	C1066.304688,755.162781 1009.393127,811.837341 922.275635,833.396362 
	C833.178955,855.445190 755.354187,830.884094 691.140442,765.527893 
	C655.334412,729.084778 634.594238,684.549744 627.290466,634.012878 
	C622.266296,599.249573 625.034668,564.899719 635.495911,531.332458 
	C646.080383,497.370056 663.247681,467.053375 687.284302,440.287048 
M803.460022,715.966370 
	C785.679565,729.632080 766.936646,741.768860 745.924438,751.731506 
	C787.989685,783.738953 834.548279,797.002625 886.399597,791.813171 
	C892.876953,754.718750 886.476929,692.928162 875.405518,673.104126 
	C867.611816,672.706360 860.269653,672.815796 853.098022,671.763184 
	C849.465393,671.230042 847.685547,672.282654 845.695129,674.779114 
	C833.494263,690.081909 819.456177,703.522156 803.460022,715.966370 
M878.617737,530.276917 
	C880.454956,529.319031 882.852539,528.813416 884.045288,527.335449 
	C902.102905,504.960327 923.633728,486.493805 947.706482,470.990540 
	C959.219482,463.575928 971.247375,456.960815 983.441162,449.747498 
	C942.007935,418.244049 895.446838,404.992096 843.609314,410.159973 
	C837.199768,445.544556 842.909668,504.429535 854.733704,528.861755 
	C862.653870,529.290649 870.240784,529.701416 878.617737,530.276917 
M690.106689,680.332214 
	C696.637634,692.043030 703.168518,703.753845 709.904724,715.832764 
	C748.058960,698.434937 782.012817,677.364197 807.944031,646.423523 
	C804.228394,639.160522 800.672607,632.970764 797.894348,626.449768 
	C796.557617,623.312195 795.054993,621.846375 791.685669,621.332825 
	C760.128601,616.522705 730.784851,605.285034 702.870911,590.118530 
	C693.580750,585.070984 684.573792,579.502380 675.125549,573.989990 
	C669.735168,610.729370 674.863647,645.846008 690.106689,680.332214 
M935.968018,731.619873 
	C935.968018,747.346558 935.968018,763.073242 935.968018,779.434570 
	C984.782471,758.965698 1019.558472,725.235107 1041.274780,677.370300 
	C1007.810486,653.565125 972.715698,634.714905 933.052124,627.847961 
	C928.047363,635.211731 923.388062,641.834717 919.054077,648.664062 
	C918.297607,649.856079 918.408020,652.113464 918.966736,653.548279 
	C928.639099,678.384644 933.719421,704.213013 935.968018,731.619873 
M1032.058594,614.445068 
	C1039.545776,618.959595 1047.033081,623.474182 1054.942505,628.243347 
	C1061.923340,576.046997 1049.704102,529.219788 1019.240112,486.558014 
	C981.801147,503.621918 947.958252,524.684875 922.187500,555.516968 
	C926.086609,563.471924 929.442993,570.656982 933.170715,577.643860 
	C933.926147,579.059692 935.984619,580.400146 937.610229,580.640686 
	C971.099670,585.595764 1001.930847,597.934814 1032.058594,614.445068 
M794.780945,477.774231 
	C794.069031,459.594849 793.357117,441.415466 792.641663,423.143951 
	C745.194885,443.060608 710.408142,476.757904 688.732178,524.622620 
	C722.218262,548.476257 757.331238,567.247803 797.152283,574.190613 
	C801.464844,567.559448 804.992371,561.330994 809.350952,555.751770 
	C811.753052,552.676880 812.079712,550.381775 810.684814,546.888184 
	C801.935730,524.975342 797.072449,502.130280 794.780945,477.774231 
z"/>
<path fill="currentColor" opacity="1.000000" stroke="none" 
	d="
M361.000000,553.000305 
	C320.852478,552.999084 281.204803,553.052307 241.557449,552.968140 
	C227.061935,552.937378 216.616730,542.505737 216.784561,528.609802 
	C216.936615,516.019104 226.686691,505.819580 239.322647,505.047485 
	C240.319077,504.986633 241.320877,505.001892 242.320190,505.001862 
	C337.440979,505.000031 432.561768,504.990784 527.682556,505.009949 
	C542.440308,505.012909 553.059875,514.900757 553.211670,528.625427 
	C553.360962,542.118652 543.145813,552.772461 529.418274,552.931152 
	C511.595886,553.137085 493.769440,552.997986 475.944763,552.999390 
	C437.796509,553.002441 399.648254,553.000305 361.000000,553.000305 
z"/>
<path fill="currentColor" opacity="1.000000" stroke="none" 
	d="
M224.951050,811.098450 
	C216.752579,803.226501 214.721176,794.114746 218.522079,783.940247 
	C222.028839,774.553101 230.905457,769.015869 241.766602,769.013306 
	C337.256805,768.991211 432.747040,768.984497 528.237244,769.017639 
	C542.555969,769.022644 553.091309,779.124451 553.211609,792.694946 
	C553.334717,806.578369 542.872681,816.963989 528.335815,816.971924 
	C432.845612,817.023865 337.355377,816.990540 241.865173,817.019104 
	C235.623550,817.020935 230.082199,815.242004 224.951050,811.098450 
z"/>
<path fill="currentColor" opacity="1.000000" stroke="none" 
	d="
M273.000000,648.999756 
	C358.128448,648.999878 442.756927,648.991882 527.385376,649.007385 
	C542.714111,649.010193 553.356018,659.081360 553.209290,673.331299 
	C553.081604,685.732117 543.630798,695.874023 531.211670,696.906067 
	C529.886292,697.016174 528.548096,696.996704 527.215881,696.996704 
	C432.425354,697.000549 337.634827,697.006348 242.844315,696.992554 
	C230.658188,696.990784 221.696274,691.230042 218.116684,681.237183 
	C212.583481,665.790588 223.540207,649.511658 240.016815,649.070068 
	C250.837402,648.779968 261.671783,649.005249 273.000000,648.999756 
z"/>
<path fill="currentColor" opacity="1.000000" stroke="none" 
	d="
M552.510620,415.064789 
	C548.494812,427.235840 540.242004,432.990967 526.983826,432.993042 
	C438.004669,433.006989 349.025513,433.000702 260.046356,432.999359 
	C253.547928,432.999268 247.046753,433.105621 240.551666,432.954773 
	C226.845352,432.636444 216.616089,422.085541 216.784439,408.599762 
	C216.948853,395.429291 227.283783,385.050446 240.832413,385.040405 
	C336.976501,384.969147 433.120697,385.005554 529.264832,385.000000 
	C542.827148,384.999237 556.178345,397.005981 552.510620,415.064789 
z"/>
</svg>